<svg width="163" height="182" viewBox="0 0 163 182" fill="none" xmlns="http://www.w3.org/2000/svg">
<path fill-rule="evenodd" clip-rule="evenodd" d="M145.792 62.2974C150.487 56.1378 158.668 47.8269 159.69 33.9253C160.739 19.6619 145.762 5.24215 130.585 3.69877C114.963 2.10954 104.6 11.1894 94.2337 22.4473C66.7306 52.3112 26.4326 93.3115 7.17507 118.998C6.1179 120.408 4.44806 146.814 3.51592 160.752C3.15264 166.183 2.08302 172.75 6.84931 176.735C11.5878 180.697 18.1391 178.948 23.4569 177.236C35.5303 173.348 46.9028 167.531 58.2524 161.946C62.702 159.757 119.118 94.4181 145.792 62.2974Z" fill="white" stroke="white" stroke-width="5.43899" stroke-miterlimit="1.5" stroke-linecap="round" stroke-linejoin="round"/>
<path fill-rule="evenodd" clip-rule="evenodd" d="M102.074 14.6549C99.4376 17.0394 96.88 19.6836 94.3225 22.4612C89.6799 27.5019 84.6726 32.8607 79.4646 38.4077C79.9585 38.6695 80.4481 38.9294 80.9357 39.1857C99.0145 48.678 116.959 64.9175 128.841 82.5844C135.18 75.1113 141.024 68.1605 145.881 62.3114C146.397 61.6355 146.954 60.9339 147.539 60.2018C137.682 41.0304 121.846 22.9879 102.074 14.6549Z" fill="white" stroke="white" stroke-width="5.43899" stroke-miterlimit="1.5" stroke-linecap="round" stroke-linejoin="round"/>
<path d="M6.98474 119.487C8.78373 118.843 12.5273 118.671 14.4728 118.7C24.7979 118.852 26.8748 130.143 26.1983 138.303C28.7565 136.361 31.9141 134.611 35.1759 134.25C44.755 133.192 48.123 141.911 45.3009 149.752C52.6129 147.775 63.5178 151.701 58.7147 161.604" stroke="white" stroke-width="5.43899" stroke-miterlimit="1.5" stroke-linecap="round" stroke-linejoin="round"/>
<path d="M4.13135 152.296C10.2847 152.116 16.6524 154.306 22.0209 157.981C27.6144 161.81 32.1228 167.25 34.1738 173.302" stroke="white" stroke-width="5.43899" stroke-miterlimit="1.5" stroke-linecap="round" stroke-linejoin="round"/>
<path d="M26.1667 138.276C33.2406 128.41 45.183 112.932 54.1273 102.559C68.3935 86.015 84.3517 67.07 99.3062 51.1548" stroke="white" stroke-width="5.43899" stroke-miterlimit="1.5" stroke-linecap="round" stroke-linejoin="round"/>
<path fill-rule="evenodd" clip-rule="evenodd" d="M45.311 149.738C68.9834 124.067 92.0807 92.0931 116.847 67.4476L45.311 149.738Z" fill="white"/>
<path d="M45.311 149.738C68.9834 124.067 92.0807 92.0931 116.847 67.4476" stroke="white" stroke-width="5.43899" stroke-miterlimit="1.5" stroke-linecap="round" stroke-linejoin="round"/>
</svg>
